<?xml version="1.0" encoding="UTF-8"?>
<svg id="Layer_1" data-name="Layer 1" xmlns="http://www.w3.org/2000/svg" viewBox="0 0 3057.07 448.77">
  <defs>
    <style>
      .cls-1 {
        stroke: #fff;
        stroke-miterlimit: 10;
        stroke-width: 3.72px;
      }

      .cls-1, .cls-2 {
        fill: #fff;
      }

      .cls-2 {
        stroke-width: 0px;
      }
    </style>
  </defs>
  <g>
    <path class="cls-2" d="M340.55,354.4h-39.1l8.91-311.84-118.3,311.84h-45.54L99.5,42.57l-61.38,311.84H0L70.29,7.92h63.85l43.56,296.99L288.08,7.92h58.9l-6.43,346.48Z"/>
    <path class="cls-2" d="M410.85,212.84C410.85,94.04,483.12,0,583.6,0c61.38,0,128.2,35.64,128.2,150.47s-71.77,211.85-171.76,211.85c-60.39,0-129.19-33.66-129.19-149.48ZM668.73,149.48c0-80.19-35.14-117.8-86.62-117.8-77.71,0-128.2,88.11-128.2,182.65,0,77.71,34.15,116.32,85.63,116.32,74.25,0,129.19-81.18,129.19-181.16Z"/>
    <path class="cls-2" d="M989.98,40.59h-99.49l-37.12,313.82h-40.09l37.12-313.82h-102.46l3.96-32.67h242.04l-3.96,32.67Z"/>
    <path class="cls-2" d="M1054.34,354.4h-39.6L1055.33,7.92h39.6l-40.59,346.48Z"/>
    <path class="cls-2" d="M1142.45,212.84c0-118.79,72.27-212.84,172.75-212.84,61.38,0,128.2,35.64,128.2,150.47s-71.77,211.85-171.76,211.85c-60.39,0-129.19-33.66-129.19-149.48ZM1400.33,149.48c0-80.19-35.14-117.8-86.62-117.8-77.71,0-128.2,88.11-128.2,182.65,0,77.71,34.15,116.32,85.63,116.32,74.25,0,129.19-81.18,129.19-181.16Z"/>
    <path class="cls-2" d="M1724.05,354.4h-41.08l-130.68-279.66-33.16,279.66h-36.63L1523.09,7.92h39.1l132.16,287.09L1728.51,7.92h36.63l-41.08,346.48Z"/>
    <path class="cls-2" d="M2087.37,354.4h-41.08v-161.86h-177.7v161.86h-41.58V7.92h41.58v148h177.7V7.92h41.08v346.48Z"/>
    <path class="cls-2" d="M2366.06,287.09h-157.9l-21.78,67.32h-43.06L2261.62,7.92h53.95l117.81,346.48h-45.54l-21.78-67.32ZM2220.04,251.45h134.14l-66.82-208.39-67.31,208.39Z"/>
    <path class="cls-2" d="M2727.4,234.12c0,61.38-29.7,128.2-128.2,128.2s-127.21-67.81-127.21-128.2V7.92h41.58v225.22c0,60.39,27.72,92.56,86.12,92.56s86.62-33.66,86.62-92.56V7.92h41.08v226.2Z"/>
    <path class="cls-2" d="M2781.36,299.46l29.7-25.74c26.24,32.17,63.36,51.97,112.86,51.97,52.96,0,90.08-25.24,90.08-64.35s-17.32-57.91-101.96-71.28c-74.25-11.88-113.35-41.58-113.35-95.04,0-56.92,48.51-95.04,122.26-95.04,64.84,0,107.91,28.21,132.65,61.38l-32.17,23.76c-14.85-21.78-44.05-48.51-100.48-48.51-49.5,0-79.69,21.78-79.69,56.92,0,33.16,18.81,49,98.01,62.37,83.65,14.35,117.81,46.03,117.81,103.45s-44.05,102.96-133.64,102.96c-51.48,0-107.91-17.82-142.06-62.86Z"/>
  </g>
  <line class="cls-1" y1="446.91" x2="3057.07" y2="446.91"/>
</svg>