<?xml version="1.0" encoding="UTF-8"?>
<svg id="Layer_1" data-name="Layer 1" xmlns="http://www.w3.org/2000/svg" viewBox="0 0 262.45 136.55">
  <defs>
    <style>
      .cls-1 {
        fill: #231f20;
      }

      .cls-1, .cls-2 {
        stroke-width: 0px;
      }

      .cls-2 {
        fill: #fed500;
      }
    </style>
  </defs>
  <path class="cls-1" d="M3.83,1.34H0V0h14.51v38.73c0,15.31,3.38,22.97,13.09,22.97,7.03,0,12.29-2.32,16.2-6.86l1.16.8s-5.34,7.66-18.07,7.66c-8.46,0-13.89-2.94-17.36-6.86-4.72-5.25-5.7-11.31-5.7-18.52V1.34Z"/>
  <path class="cls-1" d="M82.44,51.46c-2.4,5.96-7.21,11.22-16.2,11.22-11.49,0-19.86-6.23-19.86-21.1v-6.41c0-13.98,6.41-21.64,18.88-21.64s17.9,8.28,17.9,19.86v1.96c0,1.16-.36,1.6-1.78,1.6h-25.46v8.19c0,10.68,4.63,16.03,11.49,16.03s11.49-4.72,13.62-10.33l1.43.62ZM73.18,35.52c1.51,0,1.87-.27,1.87-1.96v-2.4c0-3.12-.18-7.39-1.78-10.77-1.42-2.94-3.83-5.52-8.01-5.52-6.86,0-9.35,5.34-9.35,13.98v6.68h17.27Z"/>
  <path class="cls-1" d="M146.01,45.56v4.92c0,.54,0,1.08.04,1.61l-.04-6.52Z"/>
  <path class="cls-1" d="M162.59,132.09c-.79,2.15-2.67,4.18-6.68,4.18-3.39,0-5.52-1.14-6.95-2.67-2.23-2.3-2.57-6.04-2.57-9.7l-.35-71.82-.04-6.52v-16.72c0-5.24-1.16-13.7-8.01-13.7-8.01,0-11.13,7.74-11.13,13.88,0,15.6,0-1.51,0,31.62h3.91v1.24h-15.68v-1.24h3.75v-31.8c0-7.47-1.7-13.88-8.55-13.88-7.57,0-11.22,7.03-11.22,13.26v32.42h3.75v1.24h-15.58v-1.24h3.81V16.21h-3.81v-1.34h11.82v6.33c2.23-4.9,6.43-7.66,11.67-7.66,8.73,0,13.08,4.72,15.13,10.78,1.78-7.12,6.85-10.51,12.56-10.51,11.03,0,15.66,6.13,15.66,18.15v24.58c0,.31.02.6.04.87l.02,5.36.25,67.19c0,3.19,1.43,4.72,3.29,4.72s2.84-1.16,3.48-2.59h1.41Z"/>
  <path class="cls-2" d="M192.98,24.13c0-10.24-.94-17.72-7.17-17.72s-7.11,7.48-7.11,17.72v13.45c0,6.59,1,15.14,7.11,15.14s7.17-8.55,7.17-15.14v-13.45ZM206.61,38.24c0,13.6-9.3,24.62-20.77,24.62s-20.77-11.02-20.77-24.62,9.3-24.62,20.77-24.62,20.77,11.02,20.77,24.62Z"/>
  <path class="cls-1" d="M262.45,58.76c-.8,2.14-2.67,4.19-6.68,4.19-9.62,0-9.62-7.57-9.62-12.38v-21.64c0-7.75-3.03-13.8-9.7-13.8-8.37,0-11.22,8.1-11.22,13.27v32.23h3.83v1.25h-15.67v-1.25h3.83V16.2h-3.83v-1.34h11.84v6.59c1.87-4.36,5.88-7.92,12.29-7.92,11.13,0,16.74,8.37,16.74,18.79v24.49c0,3.65,1.69,4.54,3.12,4.54,1.87,0,3.03-1.16,3.65-2.58h1.43Z"/>
  <path class="cls-1" d="M100.37,135.3h-13.89v-1.33h3.83v-34.55c0-17.98,5.43-27.51,21.37-27.51,6.68,0,18.79,4.27,18.79,16.03,0,5.61-3.92,11.13-10.42,13.71-.27.09-.18.36,0,.36,8.37,1.07,16.83,7.3,16.83,16.92,0,10.15-9.53,17.63-21.81,17.63-6.94,0-12.29-2.94-14.69-8.28v7.03ZM112.93,101.65c6.85,0,10.24-5.52,10.24-12.64,0-11.93-5.96-15.76-11.49-15.76-7.57,0-11.13,4.9-11.13,19.94v7.83c0,.45.53.62,1.6.62h10.77ZM100.55,123.19c0,4.72,4.9,11.49,11.84,11.49,10.77,0,13.18-8.37,13.18-16.47,0-7.3-2.94-15.22-14.34-15.22h-8.55c-1.78,0-2.14.27-2.14.71v19.5Z"/>
  <path class="cls-1" d="M154.1,46.69v9.85c0,.31.02.6.04.87l-.04-10.72Z"/>
  <path class="cls-1" d="M184.5,132.01c-.8,2.05-2.67,4.18-6.68,4.18-9.53,0-9.53-7.57-9.53-12.38v-34.19h-3.83v-1.34h11.84v40.33c0,4.45,1.16,5.96,3.21,5.96,1.87,0,2.94-1.16,3.56-2.58h1.43ZM167.05,72.35c0-2.58,2.05-4.72,4.72-4.72s4.72,2.14,4.72,4.72-2.05,4.81-4.72,4.81-4.72-2.14-4.72-4.81Z"/>
  <path class="cls-1" d="M188.06,135.3v-9.62h1.25c2.94,5.79,7.57,9.08,14.6,9.08s11.49-4.19,11.49-9.79c0-4.01-2.58-7.48-9.61-9.35l-4.01-1.07c-9.26-2.49-13.36-6.05-13.36-13.8s6.86-13.71,15.4-13.71c4.28,0,7.75,1.25,10.33,3.12.53.36.98.71,1.25.71.45,0,.53-.62.53-1.96v-.62h1.34l-.18,8.99h-1.34c-1.07-6.86-7.21-8.81-11.93-8.81-6.32,0-10.77,3.65-10.77,8.73s4.01,6.68,9.08,8.01l4.45,1.16c9.44,2.49,13.8,6.14,13.8,14.51s-6.77,15.31-16.47,15.31c-4.9,0-9.08-1.42-12.29-4.27-.89-.8-1.33-1.25-1.69-1.25-.44,0-.44,1.07-.53,3.83v.8h-1.34Z"/>
  <path class="cls-1" d="M228.21,135.3v-9.62h1.25c2.94,5.79,7.57,9.08,14.6,9.08s11.49-4.19,11.49-9.79c0-4.01-2.58-7.48-9.61-9.35l-4.01-1.07c-9.26-2.49-13.36-6.05-13.36-13.8s6.86-13.71,15.4-13.71c4.28,0,7.75,1.25,10.33,3.12.53.36.98.71,1.25.71.45,0,.53-.62.53-1.96v-.62h1.34l-.18,8.99h-1.34c-1.07-6.86-7.21-8.81-11.93-8.81-6.32,0-10.77,3.65-10.77,8.73s4.01,6.68,9.08,8.01l4.45,1.16c9.44,2.49,13.8,6.14,13.8,14.51s-6.77,15.31-16.47,15.31c-4.9,0-9.08-1.42-12.29-4.27-.89-.8-1.33-1.25-1.69-1.25-.44,0-.44,1.07-.53,3.83v.8h-1.34Z"/>
</svg>